<svg xmlns="http://www.w3.org/2000/svg" enable-background="new 0 0 48 48" viewBox="0 0 48 48" id="leaf">
  <path fill="#bc9c73" d="M10.4687,41.5812l2.9247-6.9746c0,0-5.4484,2.2847-6.9746,2.9247L10.4687,41.5812z"></path>
  <path fill="#ccb9ae" d="M13.3934,34.6066c0,0-5.4484,2.2847-6.9746,2.9247l2.025,2.025L13.3934,34.6066z"></path>
  <path fill="#74cc5e" d="M39.5562,8.4437c-11.7687,0-28.389,8.9756-28.2469,18.7176c0,2.4388,0.9304,4.8775,2.7911,6.7382
	s4.2995,2.7911,6.7383,2.7911C30.5806,36.8327,39.5562,20.2124,39.5562,8.4437z"></path>
  <path fill="#a8ea92" d="M39.5562,8.4437c-11.7686,0-28.389,8.9756-28.2469,18.7177c0,2.4388,0.9304,4.8774,2.7911,6.7382
	L39.5562,8.4437z"></path>
  <path fill="#474747" d="M39.5562,7.4438c-8.3428,0-18.9756,4.4053-24.7334,10.2476c-2.9985,3.043-4.5591,6.3223-4.5132,9.4697
	c0,2.4568,0.8361,4.7844,2.3725,6.6591l-6.6498,2.7886c-0.3076,0.1289-0.5303,0.4023-0.5947,0.7295
	c-0.064,0.3271,0.0386,0.6646,0.2744,0.8999l4.0498,4.0498c0.2358,0.2359,0.5731,0.3385,0.9003,0.2744
	c0.327-0.0646,0.6005-0.2873,0.7291-0.5947l2.7889-6.6505c1.9116,1.5596,4.2983,2.3763,6.78,2.3746
	c3.1201,0,6.3496-1.5591,9.3486-4.5146c5.8423-5.7578,10.2476-16.3906,10.2476-24.7334
	C40.5562,7.8916,40.1084,7.4438,39.5562,7.4438z M10.1226,39.8208l-1.9434-1.9434l3.3467-1.4033L10.1226,39.8208z M28.9048,31.7524
	c-2.6528,2.6143-5.4595,3.9575-8.0659,3.9385c-1.7487,0-3.4146-0.5269-4.8242-1.4985h4.4496c0.5522,0,1-0.4478,1-1s-0.4478-1-1-1
	h-3.2427l4.3638-4.3638h5.2427c0.5522,0,1-0.4478,1-1s-0.4478-1-1-1h-3.2427l4.3643-4.3643h5.2427c0.5522,0,1-0.4478,1-1
	s-0.4478-1-1-1h-3.2427l4.6567-4.6567c0.3906-0.3906,0.3906-1.0234,0-1.4141s-1.0234-0.3906-1.4141,0l-4.6567,4.6567v-3.2427
	c0-0.5522-0.4478-1-1-1s-1,0.4478-1,1v5.2427l-4.3643,4.3643v-3.2427c0-0.5522-0.4478-1-1-1s-1,0.4478-1,1v5.2427l-4.3638,4.3638
	v-3.2427c0-0.5522-0.4478-1-1-1s-1,0.4478-1,1v4.4491c-0.9712-1.41-1.498-3.0781-1.498-4.8383
	c-0.0381-2.6143,1.3232-5.3984,3.938-8.0513c5.1899-5.2666,14.5923-9.2935,22.2861-9.6289
	C38.1982,17.1597,34.1714,26.562,28.9048,31.7524z"></path>
</svg>
